<?xml version="1.0" standalone="no"?>
<!DOCTYPE svg PUBLIC "-//W3C//DTD SVG 20010904//EN"
 "http://www.w3.org/TR/2001/REC-SVG-20010904/DTD/svg10.dtd">
<svg version="1.0" xmlns="http://www.w3.org/2000/svg"
 width="250.000000pt" height="250.000000pt" viewBox="0 0 250.000000 250.000000"
 preserveAspectRatio="xMidYMid meet">
<metadata>
Created by potrace 1.12, written by Peter Selinger 2001-2015
</metadata>
<g transform="translate(0.000000,250.000000) scale(0.100000,-0.100000)"
fill="#000000" stroke="none">
<path d="M0 1250 l0 -1250 1250 0 1250 0 0 1250 0 1250 -1250 0 -1250 0 0
-1250z m940 699 c6 -23 16 -49 21 -58 9 -17 32 -103 29 -110 -1 -2 2 -7 7 -10
5 -3 15 -31 22 -61 8 -30 17 -59 21 -65 6 -9 23 -66 21 -72 -1 -3 35 -101 52
-143 6 -14 11 -29 12 -35 5 -36 40 -135 47 -135 5 0 7 -4 3 -10 -3 -5 -2 -17
3 -27 5 -10 20 -52 32 -93 13 -41 27 -79 30 -85 4 -5 10 -21 13 -35 15 -68 29
-117 41 -145 13 -30 46 -136 46 -148 0 -4 -59 -7 -131 -7 l-131 0 -11 30 c-6
16 -15 30 -20 30 -4 0 -6 4 -3 9 5 8 -3 43 -21 91 -9 22 -11 30 -28 89 -8 30
-20 67 -27 83 l-13 30 -185 -6 c-102 -3 -188 -6 -192 -6 -7 0 -28 -63 -48
-145 -7 -27 -17 -54 -21 -60 -5 -5 -9 -18 -9 -28 0 -11 -8 -41 -17 -68 l-18
-49 -123 0 c-98 0 -124 3 -128 14 -3 8 9 57 26 108 18 51 32 103 32 116 0 12
4 22 9 22 5 0 9 8 9 19 0 10 7 32 15 47 8 16 18 45 21 64 3 19 14 54 25 77 10
24 19 47 19 51 0 5 13 51 30 102 16 51 28 96 25 98 -3 3 1 12 8 21 8 9 26 59
41 111 15 52 36 118 46 145 11 28 21 59 23 70 2 11 8 30 15 41 12 23 25 79 24
107 0 9 3 17 7 17 4 0 13 11 19 25 l12 25 154 0 155 0 11 -41z m950 -301 c0
-3 19 -9 41 -13 57 -10 124 -41 157 -73 32 -33 83 -105 86 -124 1 -7 5 -19 9
-25 15 -24 20 -59 24 -183 l5 -125 -94 -1 c-51 0 -189 -2 -306 -2 l-214 -2 5
-35 c9 -65 56 -119 137 -157 43 -20 310 -15 310 6 0 4 7 5 16 2 8 -3 24 -2 34
4 22 12 35 -2 45 -50 4 -19 12 -40 17 -47 5 -6 8 -27 6 -45 l-3 -33 -95 -22
c-71 -16 -130 -22 -231 -22 -124 -1 -143 1 -205 25 -38 14 -71 29 -74 33 -3 4
-20 16 -37 26 -18 11 -33 22 -33 26 0 3 -16 26 -35 50 -19 24 -35 50 -35 57 0
6 -4 12 -9 12 -5 0 -12 16 -16 36 -3 20 -10 44 -15 53 -16 28 -28 112 -25 165
4 70 16 135 26 142 5 3 9 13 9 22 0 35 63 138 113 187 61 58 127 93 206 109
61 12 181 15 181 4z"/>
<path d="M756 1744 c-5 -11 -10 -32 -13 -49 -2 -16 -12 -52 -22 -80 -10 -27
-22 -68 -26 -90 -4 -22 -10 -44 -14 -50 -12 -15 -31 -98 -25 -107 3 -4 1 -8
-3 -8 -9 0 -33 -57 -33 -78 0 -9 41 -12 146 -12 113 0 145 3 142 13 -3 6 -17
53 -32 102 -16 50 -32 99 -37 110 -5 11 -13 40 -19 65 -5 25 -20 80 -33 124
-18 58 -26 74 -31 60z"/>
<path d="M1735 1469 c-56 -16 -114 -88 -130 -158 l-7 -31 192 0 192 0 -7 43
c-20 120 -120 182 -240 146z"/>
</g>
</svg>
